<svg height="512" viewBox="0 0 60 44" width="512" xmlns="http://www.w3.org/2000/svg"><g id="033---Replay-Stream"><path id="Shape" d="m55 24.783v-21.783c0-1.65685425-1.3431458-3-3-3h-34c-.5522847 0-1 .44771525-1 1s.4477153 1 1 1h34c.5522847 0 1 .44771525 1 1v21h-36v-2h3c.5522847 0 1-.4477153 1-1s-.4477153-1-1-1h-3v-6h3c.5522847 0 1-.4477153 1-1s-.4477153-1-1-1h-3v-6h3c.5522847 0 1-.44771525 1-1s-.4477153-1-1-1h-13c-.55228475 0-1 .44771525-1 1s.44771525 1 1 1h8v6h-14c-.55228475 0-1 .4477153-1 1s.44771525 1 1 1h14v6h-14c-.55228475 0-1 .4477153-1 1s.44771525 1 1 1h14v2.783l-1.463 3.217h-6.537c-.55228475 0-1 .4477153-1 1s.44771525 1 1 1h13c.5522847 0 1-.4477153 1-1s-.4477153-1-1-1h-4.266l.91-2h36.712c4.844 10.659 4.644 10.039 4.644 10.65v3.35c0 1.1045695-.8954305 2-2 2h-42c-1.1045695 0-2-.8954305-2-2 0-3.572-.06-3.656.18-4.175l1.1-2.41c.2291982-.5025791.0075791-1.0958018-.495-1.325s-1.0958018-.0075791-1.325.495c-1.717 3.768-1.46 2.515-1.46 7.415 0 2.209139 1.790861 4 4 4h42c2.209139 0 4-1.790861 4-4v-3.35c0-1.182.008-.844-5-11.867z"/><path id="Shape" d="m27.586 37c1.111 1.111 1.751 2 3.243 2h8.342c1.5 0 2.166-.923 3.243-2h12.586c.5522847 0 1-.4477153 1-1s-.4477153-1-1-1h-12.134l-.332-2.288c-.1474107-.9805054-.987487-1.7072414-1.979-1.712h-11.11c-.9918392.0048342-1.8320344.7320976-1.979 1.713l-.332 2.287h-12.134c-.5522847 0-1 .4477153-1 1s.4477153 1 1 1zm12.969-4 .383 2.648c-1.178 1.178-1.256 1.352-1.767 1.352h-8.342c-.551 0-.732-.317-1.767-1.352l.383-2.648z"/><path id="Shape" d="m38.293 9.293c-.3903819.39049985-.3903819 1.0235001 0 1.414 4.659 4.659 3.905 3.931 4.135 4.09.3850538.3065696.9406731.2674721 1.279-.09l4-4c.3789722-.3923789.3735524-1.01608478-.0121814-1.40181858-.3857338-.38573379-1.0094397-.39115363-1.4018186-.01218142l-2.4 2.4c-.6973843-4.75125193-5.0021796-8.11806171-9.781491-7.65017097-4.7793115.46789074-8.3494158 4.60564684-8.1121032 9.40193947.2373126 4.7962925 4.1984383 8.5614159 9.0005942 8.5552315.5522847 0 1-.4477153 1-1s-.4477153-1-1-1c-3.6573068.0035559-6.7009203-2.8089658-6.985572-6.4551802-.2846517-3.64621439 2.2856131-6.89699894 5.8991624-7.4610623s7.0522718 1.74873769 7.8924096 5.3082425l-2.1-2.1c-.3906608-.3894398-1.0228908-.38899236-1.413.001z"/></g></svg>