<svg id="female" enable-background="new 0 0 300 300" height="512" viewBox="0 0 300 300" width="512" xmlns="http://www.w3.org/2000/svg"><g><circle cx="242" cy="55.998" r="4.53"/><circle cx="50" cy="103.998" r="4.53"/><path d="m237.824 118.174c.781.781 1.805 1.172 2.828 1.172s2.047-.391 2.828-1.172l4.52-4.52 4.52 4.52c.781.781 1.805 1.172 2.828 1.172s2.047-.391 2.828-1.172c1.562-1.562 1.562-4.094 0-5.656l-4.52-4.52 4.52-4.52c1.562-1.562 1.562-4.094 0-5.656s-4.094-1.562-5.656 0l-4.52 4.52-4.52-4.52c-1.562-1.562-4.094-1.562-5.656 0s-1.562 4.094 0 5.656l4.52 4.52-4.52 4.52c-1.562 1.562-1.562 4.094 0 5.656z"/><path d="m152 133.998c3.387 0 6.631-1.441 8.902-3.953 1.48-1.639 1.352-4.168-.287-5.65-1.641-1.482-4.168-1.35-5.65.287-1.414 1.568-4.012 1.721-5.607.32-1.66-1.453-4.186-1.293-5.645.367-1.457 1.66-1.293 4.187.367 5.645 2.191 1.924 5.004 2.984 7.92 2.984z"/><circle cx="174" cy="107.998" r="4"/><circle cx="134" cy="107.998" r="4"/><path d="m152 205.998c-8.822 0-16 7.178-16 16s7.178 16 16 16 16-7.178 16-16-7.178-16-16-16zm0 24c-4.412 0-8-3.588-8-8s3.588-8 8-8 8 3.588 8 8-3.588 8-8 8z"/><path d="m62 69.998c7.719 0 14-6.281 14-14s-6.281-14-14-14-14 6.281-14 14 6.281 14 14 14zm0-20c3.309 0 6 2.691 6 6s-2.691 6-6 6-6-2.691-6-6 2.691-6 6-6z"/><path d="m256 265.998h-27.652l7.638-91.668c.092-1.115-.285-2.217-1.043-3.041-.758-.822-1.824-1.291-2.943-1.291h-16v-65.021c0-.012-.007-.022-.007-.034.985-1.61 1.674-3.364 1.899-5.187.394-3.206-.33-6.316-1.893-8.931v-1.289c0-34.121-25.996-62.002-59.182-63.475-20.238-.883-39.621 8.123-51.951 24.121-4.771 6.191-8.262 13.719-10.375 22.373-1.653 6.764-2.491 11.959-2.491 15.443v2.518c0 .073.037.133.041.205-1.389 2.284-2.132 4.967-2.033 7.788.08 2.221.797 4.391 1.992 6.345v65.146h-20c-1.119 0-2.186.469-2.943 1.291-.758.824-1.135 1.926-1.043 3.041l7.64 91.668h-31.654c-2.209 0-4 1.791-4 4s1.791 4 4 4h212c2.209 0 4-1.791 4-4s-1.791-4.002-4-4.002zm-88.102-96c2.538-3.353 4.102-7.48 4.102-12v-8.643c15.298-7.318 26.931-20.944 31.652-37.365 1.487.051 2.931-.195 4.348-.668v58.676zm-27.898-12v-6.287c1.126.441 2.215.954 3.375 1.328 3.029.973 6.184 1.461 9.379 1.461 3.393 0 6.832-.551 10.217-1.646l1.029-.333v5.478c0 6.617-5.383 12-12 12s-12-5.383-12-12.001zm-41.996-59.775c-.084-2.346 1.172-4.48 3.227-5.547 3.605-.707 19.023-4.773 23.346-22.998 4.465 4.887 11.066 9.711 19.43 14.084 19.277 10.08 46.943 17.105 63.898 9.682 1.506 1.291 2.301 3.271 2.047 5.336-.199 1.625-1.324 3.221-3.008 4.27-1.682 1.047-3.107 1.211-4.924.572-1.08-.381-2.275-.281-3.277.277s-1.717 1.521-1.961 2.643c-3.9 17.883-17.119 32.492-34.496 38.125l-1.779.576c-4.965 1.607-10.047 1.668-14.68.182-17.689-5.695-30.998-20.561-34.736-38.791-.23-1.123-.93-2.094-1.924-2.664-.613-.354-1.301-.533-1.994-.533-.43 0-.859.068-1.275.209-1.541.523-2.971.598-4.918-.715-1.775-1.2-2.916-3.005-2.976-4.708zm13.199-43.158c10.742-13.936 27.678-21.773 45.26-21.012 27.4 1.217 49.133 23.196 51.32 50.893-.541.047-1.081.162-1.57.43-13.334 7.246-40.094.922-58.502-8.703-12.742-6.662-21.061-14.453-21.705-20.332-.238-2.166-2.516-3.703-4.725-3.51-2.133.195-3.732 2.035-3.631 4.174 1.084 22.59-13.896 27.003-17.391 27.723.333-2.696.991-6.133 2.002-10.273 1.85-7.564 4.858-14.087 8.942-19.39zm-11.203 56.261c1.363.474 2.745.717 4.152.674 4.18 15.277 14.32 28.099 27.848 35.89v10.108c0 4.52 1.564 8.647 4.102 12h-36.102zm-23.652 66.672h151.305l-7.332 88h-136.639z"/></g></svg>